# AETHELGRAD original forest launch prop kit
mtllib forest_prop_kit.mtl
o ForestLaunchPropKit
v -1.26900 0.00000 0.00000
v -1.43352 0.56648 0.00000
v -2.00000 0.75437 0.00000
v -2.58301 0.58301 0.00000
v -2.77775 0.00000 0.00000
v -2.51690 -0.51690 0.00000
v -2.00000 -0.80112 0.00000
v -1.46658 -0.53342 0.00000
v -1.22225 0.00000 0.46200
v -1.48310 0.51690 0.46200
v -2.00000 0.80112 0.46200
v -2.53342 0.53342 0.46200
v -2.82450 0.00000 0.46200
v -2.54995 -0.54995 0.46200
v -2.00000 -0.73100 0.46200
v -1.43352 -0.56648 0.46200
v -1.17550 0.00000 0.90200
v -1.45005 0.54995 0.90200
v -2.00000 0.73100 0.90200
v -2.56648 0.56648 0.90200
v -2.75438 0.00000 0.90200
v -2.58301 -0.58301 0.90200
v -2.00000 -0.77775 0.90200
v -1.48310 -0.51690 0.90200
v -1.24562 0.00000 1.10000
v -1.41699 0.58301 1.10000
v -2.00000 0.77775 1.10000
v -2.51690 0.51690 1.10000
v -2.80112 0.00000 1.10000
v -2.53342 -0.53342 1.10000
v -2.00000 -0.82450 1.10000
v -1.45005 -0.54995 1.10000
v -2.00000 0.00000 0.00000
v -1.97450 -0.01700 1.10000
v 0.49880 0.00000 0.00000
v 0.38654 0.38654 0.00000
v 0.00000 0.51475 0.00000
v -0.39782 0.39782 0.00000
v -0.53070 0.00000 0.00000
v -0.35270 -0.35270 0.00000
v -0.00000 -0.54665 0.00000
v 0.36398 -0.36398 0.00000
v 0.53070 0.00000 0.30240
v 0.35270 0.35270 0.30240
v 0.00000 0.54665 0.30240
v -0.36398 0.36398 0.30240
v -0.56260 0.00000 0.30240
v -0.37526 -0.37526 0.30240
v -0.00000 -0.49880 0.30240
v 0.38654 -0.38654 0.30240
v 0.56260 0.00000 0.59040
v 0.37526 0.37526 0.59040
v 0.00000 0.49880 0.59040
v -0.38654 0.38654 0.59040
v -0.51475 0.00000 0.59040
v -0.39782 -0.39782 0.59040
v -0.00000 -0.53070 0.59040
v 0.35270 -0.35270 0.59040
v 0.51475 0.00000 0.72000
v 0.39782 0.39782 0.72000
v 0.00000 0.53070 0.72000
v -0.35270 0.35270 0.72000
v -0.54665 0.00000 0.72000
v -0.36398 -0.36398 0.72000
v -0.00000 -0.56260 0.72000
v 0.37526 -0.37526 0.72000
v 0.00000 0.00000 0.00000
v 0.01740 -0.01160 0.72000
v 2.00960 0.00000 0.00000
v 1.93992 0.23992 0.00000
v 1.70000 0.31950 0.00000
v 1.45308 0.24692 0.00000
v 1.37060 0.00000 0.00000
v 1.48108 -0.21892 0.00000
v 1.70000 -0.33930 0.00000
v 1.92592 -0.22592 0.00000
v 2.02940 0.00000 0.17640
v 1.91892 0.21892 0.17640
v 1.70000 0.33930 0.17640
v 1.47408 0.22592 0.17640
v 1.35080 0.00000 0.17640
v 1.46708 -0.23292 0.17640
v 1.70000 -0.30960 0.17640
v 1.93992 -0.23992 0.17640
v 2.04920 0.00000 0.34440
v 1.93292 0.23292 0.34440
v 1.70000 0.30960 0.34440
v 1.46008 0.23992 0.34440
v 1.38050 0.00000 0.34440
v 1.45308 -0.24692 0.34440
v 1.70000 -0.32940 0.34440
v 1.91892 -0.21892 0.34440
v 2.01950 0.00000 0.42000
v 1.94692 0.24692 0.42000
v 1.70000 0.32940 0.42000
v 1.48108 0.21892 0.42000
v 1.36070 0.00000 0.42000
v 1.47408 -0.22592 0.42000
v 1.70000 -0.34920 0.42000
v 1.93292 -0.23292 0.42000
v 1.70000 0.00000 0.00000
v 1.71080 -0.00720 0.42000
v -1.40000 2.23000 0.52000
v 1.40000 2.23000 0.52000
v -1.40000 2.18607 0.65519
v 1.40000 2.18607 0.65519
v -1.40000 2.07107 0.73874
v 1.40000 2.07107 0.73874
v -1.40000 1.92893 0.73874
v 1.40000 1.92893 0.73874
v -1.40000 1.81393 0.65519
v 1.40000 1.81393 0.65519
v -1.40000 1.77000 0.52000
v 1.40000 1.77000 0.52000
v -1.40000 1.81393 0.38481
v 1.40000 1.81393 0.38481
v -1.40000 1.92893 0.30126
v 1.40000 1.92893 0.30126
v -1.40000 2.07107 0.30126
v 1.40000 2.07107 0.30126
v -1.40000 2.18607 0.38481
v 1.40000 2.18607 0.38481
v -1.21000 3.76000 0.00000
v -0.79000 3.76000 0.00000
v -0.79000 4.24000 0.00000
v -1.21000 4.24000 0.00000
v -1.21000 3.76000 2.50000
v -0.79000 3.76000 2.50000
v -0.79000 4.24000 2.50000
v -1.21000 4.24000 2.50000
v 0.79000 3.76000 0.00000
v 1.21000 3.76000 0.00000
v 1.21000 4.24000 0.00000
v 0.79000 4.24000 0.00000
v 0.79000 3.76000 2.50000
v 1.21000 3.76000 2.50000
v 1.21000 4.24000 2.50000
v 0.79000 4.24000 2.50000
v -1.21000 3.75000 2.19000
v 1.21000 3.75000 2.19000
v 1.21000 4.25000 2.19000
v -1.21000 4.25000 2.19000
v -1.21000 3.75000 2.61000
v 1.21000 3.75000 2.61000
v 1.21000 4.25000 2.61000
v -1.21000 4.25000 2.61000
v 2.10000 3.77500 0.00000
v 3.90000 3.77500 0.00000
v 3.90000 4.22500 0.00000
v 2.10000 4.22500 0.00000
v 2.10000 3.77500 2.00000
v 3.90000 3.77500 2.00000
v 3.90000 4.22500 2.00000
v 2.10000 4.22500 2.00000
v -0.60000 5.40000 0.00000
v 0.60000 5.40000 0.00000
v 0.60000 6.60000 0.00000
v -0.60000 6.60000 0.00000
v -0.60000 5.40000 0.24000
v 0.60000 5.40000 0.24000
v 0.60000 6.60000 0.24000
v -0.60000 6.60000 0.24000
v 0.22360 6.00000 0.26000
v 0.17328 6.17328 0.26000
v 0.00000 6.23075 0.26000
v -0.17833 6.17833 0.26000
v -0.23790 6.00000 0.26000
v -0.15811 5.84189 0.26000
v -0.00000 5.75495 0.26000
v 0.16316 5.83684 0.26000
v 0.23790 6.00000 0.36080
v 0.15811 6.15811 0.36080
v 0.00000 6.24505 0.36080
v -0.16316 6.16316 0.36080
v -0.25220 6.00000 0.36080
v -0.16822 5.83178 0.36080
v -0.00000 5.77640 0.36080
v 0.17328 5.82672 0.36080
v 0.25220 6.00000 0.45680
v 0.16822 6.16822 0.45680
v 0.00000 6.22360 0.45680
v -0.17328 6.17328 0.45680
v -0.23075 6.00000 0.45680
v -0.17833 5.82167 0.45680
v -0.00000 5.76210 0.45680
v 0.15811 5.84189 0.45680
v 0.23075 6.00000 0.50000
v 0.17833 6.17833 0.50000
v 0.00000 6.23790 0.50000
v -0.15811 6.15811 0.50000
v -0.24505 6.00000 0.50000
v -0.16316 5.83684 0.50000
v -0.00000 5.74780 0.50000
v 0.16822 5.83178 0.50000
v 0.00000 6.00000 0.26000
v 0.00780 5.99480 0.50000
v 0.77500 5.72500 0.09000
v 1.52500 5.72500 0.09000
v 1.52500 6.27500 0.09000
v 0.77500 6.27500 0.09000
v 0.77500 5.72500 0.51000
v 1.52500 5.72500 0.51000
v 1.52500 6.27500 0.51000
v 0.77500 6.27500 0.51000
v -3.42500 5.57500 0.00000
v -2.57500 5.57500 0.00000
v -2.57500 6.42500 0.00000
v -3.42500 6.42500 0.00000
v -3.42500 5.57500 0.76000
v -2.57500 5.57500 0.76000
v -2.57500 6.42500 0.76000
v -3.42500 6.42500 0.76000
v -2.74200 6.00000 0.76000
v -2.80007 6.19993 0.76000
v -3.00000 6.26625 0.76000
v -3.20577 6.20577 0.76000
v -3.27450 6.00000 0.76000
v -3.18243 5.81757 0.76000
v -3.00000 5.71725 0.76000
v -2.81173 5.81173 0.76000
v -2.72550 6.00000 1.28500
v -2.81757 6.18243 1.28500
v -3.00000 6.28275 1.28500
v -3.18827 6.18827 1.28500
v -3.29100 6.00000 1.28500
v -3.19410 5.80590 1.28500
v -3.00000 5.74200 1.28500
v -2.80007 5.80007 1.28500
v -2.70900 6.00000 1.78500
v -2.80590 6.19410 1.78500
v -3.00000 6.25800 1.78500
v -3.19993 6.19993 1.78500
v -3.26625 6.00000 1.78500
v -3.20577 5.79423 1.78500
v -3.00000 5.72550 1.78500
v -2.81757 5.81757 1.78500
v -2.73375 6.00000 2.01000
v -2.79423 6.20577 2.01000
v -3.00000 6.27450 2.01000
v -3.18243 6.18243 2.01000
v -3.28275 6.00000 2.01000
v -3.18827 5.81173 2.01000
v -3.00000 5.70900 2.01000
v -2.80590 5.80590 2.01000
v -3.00000 6.00000 0.76000
v -2.99100 5.99400 2.01000
s off
g SM_Rock_Large
usemtl M_Prop_Rock
f 1 2 10 9
f 9 10 18 17
f 17 18 26 25
f 33 2 1
f 34 25 26
f 2 3 11 10
f 10 11 19 18
f 18 19 27 26
f 33 3 2
f 34 26 27
f 3 4 12 11
f 11 12 20 19
f 19 20 28 27
f 33 4 3
f 34 27 28
f 4 5 13 12
f 12 13 21 20
f 20 21 29 28
f 33 5 4
f 34 28 29
f 5 6 14 13
f 13 14 22 21
f 21 22 30 29
f 33 6 5
f 34 29 30
f 6 7 15 14
f 14 15 23 22
f 22 23 31 30
f 33 7 6
f 34 30 31
f 7 8 16 15
f 15 16 24 23
f 23 24 32 31
f 33 8 7
f 34 31 32
f 8 1 9 16
f 16 9 17 24
f 24 17 25 32
f 33 1 8
f 34 32 25
g SM_Rock_Mossy
usemtl M_Prop_Moss
f 35 36 44 43
f 43 44 52 51
f 51 52 60 59
f 67 36 35
f 68 59 60
f 36 37 45 44
f 44 45 53 52
f 52 53 61 60
f 67 37 36
f 68 60 61
f 37 38 46 45
f 45 46 54 53
f 53 54 62 61
f 67 38 37
f 68 61 62
f 38 39 47 46
f 46 47 55 54
f 54 55 63 62
f 67 39 38
f 68 62 63
f 39 40 48 47
f 47 48 56 55
f 55 56 64 63
f 67 40 39
f 68 63 64
f 40 41 49 48
f 48 49 57 56
f 56 57 65 64
f 67 41 40
f 68 64 65
f 41 42 50 49
f 49 50 58 57
f 57 58 66 65
f 67 42 41
f 68 65 66
f 42 35 43 50
f 50 43 51 58
f 58 51 59 66
f 67 35 42
f 68 66 59
g SM_Rock_Small
usemtl M_Prop_Rock
f 69 70 78 77
f 77 78 86 85
f 85 86 94 93
f 101 70 69
f 102 93 94
f 70 71 79 78
f 78 79 87 86
f 86 87 95 94
f 101 71 70
f 102 94 95
f 71 72 80 79
f 79 80 88 87
f 87 88 96 95
f 101 72 71
f 102 95 96
f 72 73 81 80
f 80 81 89 88
f 88 89 97 96
f 101 73 72
f 102 96 97
f 73 74 82 81
f 81 82 90 89
f 89 90 98 97
f 101 74 73
f 102 97 98
f 74 75 83 82
f 82 83 91 90
f 90 91 99 98
f 101 75 74
f 102 98 99
f 75 76 84 83
f 83 84 92 91
f 91 92 100 99
f 101 76 75
f 102 99 100
f 76 69 77 84
f 84 77 85 92
f 92 85 93 100
f 101 69 76
f 102 100 93
g SM_Log_Fallen
usemtl M_Prop_Bark
f 103 105 106 104
usemtl M_Prop_LogCut
f 103 105 103
f 104 104 106
usemtl M_Prop_Bark
f 105 107 108 106
usemtl M_Prop_LogCut
f 103 107 105
f 104 106 108
usemtl M_Prop_Bark
f 107 109 110 108
usemtl M_Prop_LogCut
f 103 109 107
f 104 108 110
usemtl M_Prop_Bark
f 109 111 112 110
usemtl M_Prop_LogCut
f 103 111 109
f 104 110 112
usemtl M_Prop_Bark
f 111 113 114 112
usemtl M_Prop_LogCut
f 103 113 111
f 104 112 114
usemtl M_Prop_Bark
f 113 115 116 114
usemtl M_Prop_LogCut
f 103 115 113
f 104 114 116
usemtl M_Prop_Bark
f 115 117 118 116
usemtl M_Prop_LogCut
f 103 117 115
f 104 116 118
usemtl M_Prop_Bark
f 117 119 120 118
usemtl M_Prop_LogCut
f 103 119 117
f 104 118 120
usemtl M_Prop_Bark
f 119 121 122 120
usemtl M_Prop_LogCut
f 103 121 119
f 104 120 122
usemtl M_Prop_Bark
f 121 103 104 122
usemtl M_Prop_LogCut
f 103 103 121
f 104 122 104
g SM_Ruin_Pillar_Left
usemtl M_Prop_RuinStone
f 123 124 125 126
f 127 130 129 128
f 123 127 128 124
f 124 128 129 125
f 125 129 130 126
f 127 123 126 130
g SM_Ruin_Pillar_Right
usemtl M_Prop_RuinMoss
f 131 132 133 134
f 135 138 137 136
f 131 135 136 132
f 132 136 137 133
f 133 137 138 134
f 135 131 134 138
g SM_Ruin_Arch_Lintel
usemtl M_Prop_RuinStone
f 139 140 141 142
f 143 146 145 144
f 139 143 144 140
f 140 144 145 141
f 141 145 146 142
f 143 139 142 146
g SM_Ruin_Wall_Segment
f 147 148 149 150
f 151 154 153 152
f 147 151 152 148
f 148 152 153 149
f 149 153 154 150
f 151 147 150 154
g SM_Camp_FireRing
usemtl M_Prop_RuinMoss
f 155 156 157 158
f 159 162 161 160
f 155 159 160 156
f 156 160 161 157
f 157 161 162 158
f 159 155 158 162
g SM_Camp_EmberCore
usemtl M_Prop_Ember
f 163 164 172 171
f 171 172 180 179
f 179 180 188 187
f 195 164 163
f 196 187 188
f 164 165 173 172
f 172 173 181 180
f 180 181 189 188
f 195 165 164
f 196 188 189
f 165 166 174 173
f 173 174 182 181
f 181 182 190 189
f 195 166 165
f 196 189 190
f 166 167 175 174
f 174 175 183 182
f 182 183 191 190
f 195 167 166
f 196 190 191
f 167 168 176 175
f 175 176 184 183
f 183 184 192 191
f 195 168 167
f 196 191 192
f 168 169 177 176
f 176 177 185 184
f 184 185 193 192
f 195 169 168
f 196 192 193
f 169 170 178 177
f 177 178 186 185
f 185 186 194 193
f 195 170 169
f 196 193 194
f 170 163 171 178
f 178 171 179 186
f 186 179 187 194
f 195 163 170
f 196 194 187
g SM_Camp_WoodPile
usemtl M_Prop_Bark
f 197 198 199 200
f 201 204 203 202
f 197 201 202 198
f 198 202 203 199
f 199 203 204 200
f 201 197 200 204
g SM_Shrine_Pedestal
usemtl M_Prop_RuinStone
f 205 206 207 208
f 209 212 211 210
f 205 209 210 206
f 206 210 211 207
f 207 211 212 208
f 209 205 208 212
g SM_Shrine_StandingStone
usemtl M_Prop_RuinMoss
f 213 214 222 221
f 221 222 230 229
f 229 230 238 237
f 245 214 213
f 246 237 238
f 214 215 223 222
f 222 223 231 230
f 230 231 239 238
f 245 215 214
f 246 238 239
f 215 216 224 223
f 223 224 232 231
f 231 232 240 239
f 245 216 215
f 246 239 240
f 216 217 225 224
f 224 225 233 232
f 232 233 241 240
f 245 217 216
f 246 240 241
f 217 218 226 225
f 225 226 234 233
f 233 234 242 241
f 245 218 217
f 246 241 242
f 218 219 227 226
f 226 227 235 234
f 234 235 243 242
f 245 219 218
f 246 242 243
f 219 220 228 227
f 227 228 236 235
f 235 236 244 243
f 245 220 219
f 246 243 244
f 220 213 221 228
f 228 221 229 236
f 236 229 237 244
f 245 213 220
f 246 244 237
